:SAMPLES-PER-SECOND 30
:FULLY-SPECIFIED
:DEGREES
62
root  26.9344 39.2154 23.6506 26.2728 -79.2809 -30.2443
RightUpLeg  -11.3906 -14.9426 5.85347
RightLeg  22.1932 -1.75447 0.652792
RightFoot  -7.22682 0.059077 -3.02239
RightToes  1.74622e-010 0 -3.6325e-017
Spine  4.94764 -1.19785 13.7966
Spine1  9.5256 -0.231708 0.324206
HEad  -8.75307 -3.30186 -1.5032
LeftShoulder1  9.15244 -12.7785 -49.0728
LeftArm  -2.4014 13.175 -29.8201
LeftForeArm  25.6653 -17.1839 -4.7766
LeftHand  -0.244104 0.0205437 5.32207
RightShoulder  6.36125 9.80972 41.547
RightArm  1.77228 -6.4794 29.3155
RightForeArm  -2.6314 19.7166 5.53022
RightHand  -1.10236 2.24104 -16.8753
LeftUpLeg  -11.8734 2.89638 6.82549
LeftLeg  63.124 2.87448 6.79603
LeftFoot  3.06525 0.427372 -3.51786
LeftToes  -2.63786e-011 -1.12672e-010 -2.07835e-011
63
root  25.3574 39.5124 23.7284 22.6173 -80.0396 -26.4228
RightUpLeg  -7.53581 -12.6254 3.82419
RightLeg  20.2036 -3.70299 1.61295
RightFoot  -8.7597 0.00138408 -2.70877
RightToes  1.74622e-010 0 -3.6325e-017
Spine  4.64064 -0.338798 13.4068
Spine1  9.54107 0.832751 -0.6348
HEad  -8.6868 -4.36978 -1.05397
LeftShoulder1  9.08003 -12.7643 -48.7259
LeftArm  -4.83527 15.5437 -29.2947
LeftForeArm  26.898 -14.344 -5.4377
LeftHand  -0.244104 0.0205437 5.32207
RightShoulder  6.31192 9.80304 41.2218
RightArm  3.78351 -4.25193 29.6851
RightForeArm  -3.91479 24.3957 5.32786
RightHand  -1.12414 2.19461 -17.3011
LeftUpLeg  -16.3628 3.08165 5.60296
LeftLeg  59.8357 2.58951 5.39585
LeftFoot  1.32754 0.375022 -3.43965
LeftToes  -2.63786e-011 -1.12672e-010 -2.07835e-011
64
root  23.7761 39.7637 23.8269 18.9224 -80.972 -22.6086
RightUpLeg  -3.68047 -10.3227 2.12888
RightLeg  17.8578 -5.06125 2.53977
RightFoot  -9.93806 -0.0364135 -2.47409
RightToes  1.74622e-010 0 -3.6325e-017
Spine  4.33177 0.450968 13.0383
Spine1  9.48957 1.83748 -1.90386
HEad  -8.39623 -5.02715 -0.858864
LeftShoulder1  9.00036 -12.7276 -48.4052
LeftArm  -6.21776 18.1713 -28.4731
LeftForeArm  27.04 -12.3703 -5.75362
LeftHand  -0.244104 0.0205437 5.32207
RightShoulder  6.22665 9.68397 41.0172
RightArm  3.1952 -2.06132 29.8091
RightForeArm  -2.38896 28.833 6.37759
RightHand  -1.14091 2.12807 -17.7029
LeftUpLeg  -19.7509 3.62038 4.46689
LeftLeg  53.7539 2.41532 4.01371
LeftFoot  -0.433498 0.314641 -3.28595
LeftToes  -2.63786e-011 -1.12672e-010 -2.07835e-011
65
root  22.2151 39.8605 23.9562 16.2794 -82.027 -19.7961
RightUpLeg  -0.301242 -9.24156 0.915293
RightLeg  16.1287 -4.87252 3.20315
RightFoot  -11.4668 -0.0800508 -2.14076
RightToes  1.74622e-010 0 -3.6325e-017
Spine  4.04325 1.11583 12.9077
Spine1  9.38834 2.74409 -3.3661
HEad  -8.17202 -5.18142 -0.786641
LeftShoulder1  8.88894 -12.6299 -48.0918
LeftArm  -6.83665 20.9453 -27.5211
LeftForeArm  26.9282 -11.2747 -5.81269
LeftHand  -0.244104 0.0205437 5.32207
RightShoulder  6.19426 9.61507 41.018
RightArm  2.87205 0.0777628 29.8364
RightForeArm  -0.97807 32.9945 7.37096
RightHand  -1.11386 1.9314 -17.739
LeftUpLeg  -22.1179 4.8119 3.6945
LeftLeg  45.3996 2.7167 3.32435
LeftFoot  -1.67386 0.367668 -4.22062
LeftToes  -2.63786e-011 -1.12672e-010 -2.07835e-011
66
root  20.6588 39.8092 24.1217 15.7056 -83.0465 -18.8979
RightUpLeg  2.42811 -8.97734 0.138587
RightLeg  15.306 -4.1899 3.49406
RightFoot  -13.2656 -0.131361 -2.41045
RightToes  1.74622e-010 0 -3.6325e-017
Spine  3.48425 1.61654 13.1257
Spine1  9.54106 3.47792 -4.88243
HEad  -8.53375 -5.17127 -0.594668
LeftShoulder1  8.76779 -12.5081 -47.7933
LeftArm  -7.14764 23.7545 -26.5763
LeftForeArm  26.6294 -10.9279 -5.6974
LeftHand  -0.244104 0.0205437 5.32207
RightShoulder  6.23808 9.67308 41.135
RightArm  2.79096 2.25445 29.9013
RightForeArm  -0.052166 36.492 8.30502
RightHand  -1.0686 1.62701 -17.7464
LeftUpLeg  -23.4799 6.26174 3.26509
LeftLeg  34.9612 3.31065 2.84952
LeftFoot  -1.32925 0.450321 -5.05207
LeftToes  -2.63786e-011 -1.12672e-010 -2.07835e-011
67
root  19.1062 39.7496 24.3058 15.9569 -84.2123 -18.8373
RightUpLeg  5.22374 -8.83611 -0.563297
RightLeg  14.1931 -3.38368 3.57405
RightFoot  -14.7005 -0.190731 -3.12029
RightToes  1.74622e-010 0 -3.6325e-017
Spine  2.80883 2.01586 13.2119
Spine1  10.0935 4.12832 -6.45041
HEad  -9.36709 -5.13225 -0.304496
LeftShoulder1  8.67013 -12.3825 -47.6318
LeftArm  -7.31295 26.4828 -25.7392
LeftForeArm  25.9825 -10.9888 -5.53065
LeftHand  -0.244104 0.0205437 5.32207
RightShoulder  6.30727 9.78399 41.253
RightArm  3.14921 4.48485 30.0824
RightForeArm  0.291161 39.0099 9.05858
RightHand  -1.05255 1.44 -17.9454
LeftUpLeg  -23.5546 7.47922 2.92547
LeftLeg  22.3839 2.55734 1.5218
LeftFoot  0.459543 0.462284 -4.5148
LeftToes  -2.63786e-011 -1.12672e-010 -2.07835e-011
68
root  17.5494 39.6547 24.5103 17.7529 -85.6246 -20.6331
RightUpLeg  8.4145 -8.84812 -1.46499
RightLeg  12.9152 -1.76164 3.58701
RightFoot  -16.0386 -0.223517 -2.85089
RightToes  1.74622e-010 0 -3.6325e-017
Spine  2.54091 2.33474 13.063
Spine1  10.7115 4.76428 -7.84218
HEad  -10.0434 -5.04653 -0.0248633
LeftShoulder1  8.54552 -12.1916 -47.5148
LeftArm  -7.63681 29.035 -25.3161
LeftForeArm  25.2291 -11.01 -5.35582
LeftHand  -0.244104 0.0205437 5.32207
RightShoulder  6.37375 9.90383 41.3202
RightArm  3.84697 6.44624 30.4091
RightForeArm  0.971584 40.4182 9.47798
RightHand  -1.04664 1.39101 -17.9708
LeftUpLeg  -22.3308 6.89094 3.65685
LeftLeg  9.18639 0.908726 -0.538684
LeftFoot  1.91785 0.457866 -4.02875
LeftToes  -2.63786e-011 -1.12672e-010 -2.07835e-011
69
root  15.9171 39.3977 24.7795 27.3355 -86.9724 -30.5558
RightUpLeg  11.4742 -9.34664 -2.51112
RightLeg  13.029 0.679535 3.47238
RightFoot  -17.6884 -0.20423 -1.52446
RightToes  1.74622e-010 0 -3.6325e-017
Spine  2.60515 2.58953 13.2212
Spine1  11.1008 5.33228 -8.88749
HEad  -10.3238 -4.99126 0.317487
LeftShoulder1  8.34348 -11.938 -47.1447
LeftArm  -8.52 31.3033 -25.6252
LeftForeArm  24.6118 -10.7157 -5.11034
LeftHand  -0.244104 0.0205437 5.32207
RightShoulder  6.45467 10.0723 41.326
RightArm  4.57341 7.58383 30.8715
RightForeArm  2.28411 40.8968 9.55758
RightHand  -1.01787 1.29705 -17.7252
LeftUpLeg  -20.8677 3.38536 6.29467
LeftLeg  -0.425094 1.9564 -2.36576
LeftFoot  1.23768 0.537728 -4.97092
LeftToes  -2.63786e-011 -1.12672e-010 -2.07835e-011
70
root  14.1941 39.0575 25.133 49.0331 -87.9563 -52.662
RightUpLeg  14.0708 -10.1642 -3.76478
RightLeg  14.5131 3.12651 3.07319
RightFoot  -19.0363 -0.158634 -0.431132
RightToes  1.74622e-010 0 -3.6325e-017
Spine  2.44366 2.83339 13.6012
Spine1  11.5898 5.87541 -9.74444
HEad  -10.576 -5.13662 0.91
LeftShoulder1  8.14412 -11.7502 -46.5718
LeftArm  -9.74613 33.1796 -26.4593
LeftForeArm  24.013 -10.1542 -4.80099
LeftHand  -0.244104 0.0205437 5.32207
RightShoulder  6.55607 10.2791 41.3467
RightArm  5.29907 7.63925 31.2371
RightForeArm  3.0702 40.7257 9.44998
RightHand  -1.0186 1.29704 -17.7359
LeftUpLeg  -20.74 4.08092 6.71586
LeftLeg  -2.50242 1.20788 -2.52112
LeftFoot  -0.127037 0.570923 -5.77736
LeftToes  -2.63786e-011 -1.12672e-010 -2.07835e-011
71
root  12.4053 38.7505 25.5457 86.8387 -88.6671 -90.876
RightUpLeg  16.3487 -10.1108 -5.27459
RightLeg  16.4674 4.8017 2.31679
RightFoot  -19.8305 -0.0325508 1.30434
RightToes  1.74622e-010 0 -3.6325e-017
Spine  1.94018 3.13528 13.3085
Spine1  12.4294 6.40827 -10.1883
HEad  -10.5129 -5.68248 1.59672
LeftShoulder1  8.0651 -11.6791 -46.3292
LeftArm  -10.4934 34.5372 -27.1032
LeftForeArm  23.3873 -9.40434 -4.60177
LeftHand  -0.244104 0.0205437 5.32207
RightShoulder  6.66565 10.4226 41.6245
RightArm  6.35392 6.82193 31.1395
RightForeArm  2.59457 39.8225 9.18071
RightHand  -1.10128 1.6782 -18.1461
LeftUpLeg  -21.2244 4.13179 6.23684
LeftLeg  1.2946 3.62154 -2.05149
LeftFoot  2.04337 0.538258 -4.7573
LeftToes  -2.63786e-011 -1.12672e-010 -2.07835e-011
72
root  10.5395 38.4511 25.9692 153.45 -88.9092 -158.18
RightUpLeg  18.1911 -7.54537 -6.65078
RightLeg  19.558 4.39632 1.48711
RightFoot  -19.8454 0.291225 5.80488
RightToes  1.74622e-010 0 -3.6325e-017
Spine  1.54293 3.47943 11.5298
Spine1  13.0246 6.62348 -9.59031
HEad  -9.61981 -6.8547 2.49106
LeftShoulder1  8.09538 -11.6127 -46.7167
LeftArm  -10.2854 35.1383 -27.078
LeftForeArm  23.013 -8.29486 -4.6258
LeftHand  -0.244104 0.0205437 5.32207
RightShoulder  6.78444 10.4378 42.371
RightArm  7.76409 5.36112 30.6364
RightForeArm  1.88722 37.6056 8.52824
RightHand  -1.21703 2.31335 -18.4193
LeftUpLeg  -21.8209 4.76702 4.41727
LeftLeg  7.92046 4.72711 -0.598366
LeftFoot  7.53389 0.453007 -3.00956
LeftToes  -2.63786e-011 -1.12672e-010 -2.07835e-011
